<svg xmlns="http://www.w3.org/2000/svg" viewBox="0 0 1158 198" class="createiq">
    <g fill="#6750A4" fill-rule="evenodd">
        <path
                d="M99.065 197.68c13.57 0 26.96-2.979 40.168-8.935 13.21-5.957 24.79-14.068 34.741-24.332l-21.441-24.195c-7.057 7.148-15.154 12.739-24.292 16.771-9.137 4.033-18.23 6.049-27.276 6.049-11.761 0-22.527-2.887-32.298-8.66-9.771-5.774-17.46-13.656-23.07-23.645-5.61-9.99-8.414-20.941-8.414-32.855 0-11.914 2.805-22.866 8.414-32.855 5.61-9.99 13.299-17.825 23.07-23.507 9.77-5.682 20.537-8.524 32.298-8.524 9.409 0 18.682 2.2 27.82 6.599 9.137 4.399 17.053 10.54 23.748 18.42l21.17-26.943c-9.228-9.715-20.356-17.321-33.384-22.82C127.291 2.75 113.992 0 100.422 0c-18.637 0-35.6 4.307-50.89 12.922S22.165 33.36 13.3 48.39C4.433 63.419 0 80.099 0 98.428s4.343 35.054 13.028 50.176c8.685 15.121 20.627 27.081 35.826 35.879 15.199 8.798 31.936 13.197 50.21 13.197Zm128.504-.15v-74.22c0-13.433 4.479-24.097 13.435-31.993 8.957-7.896 20.944-11.39 35.962-10.482V46.529c-11.218.181-21.034 2.768-29.448 7.76-8.414 4.991-15.063 12.206-19.949 21.645V46.529h-35.283v151h35.283Zm137.016.21c12.666 0 24.201-2.22 34.605-6.662 10.404-4.44 19.225-10.732 26.463-18.875l-19-20.263c-5.065 5.367-10.991 9.484-17.777 12.352-6.785 2.869-13.887 4.303-21.305 4.303-10.676 0-19.677-3.007-27.006-9.021-7.328-6.014-12.168-14.295-14.52-24.843h107.207c.181-2.406.271-6.014.271-10.826 0-24.426-5.835-43.394-17.506-56.903-11.67-13.508-29.086-20.263-52.246-20.263-14.294 0-27.05 3.192-38.269 9.577-11.218 6.384-19.949 15.313-26.19 26.786-6.243 11.473-9.365 24.611-9.365 39.415 0 14.804 3.076 27.897 9.228 39.277 6.152 11.38 14.883 20.217 26.191 26.509 11.31 6.291 24.382 9.437 39.22 9.437Zm36.64-87.765h-75.994c1.628-10.998 5.926-19.658 12.892-25.982 6.966-6.323 15.606-9.485 25.92-9.485 11.037 0 19.903 3.208 26.598 9.623 6.694 6.415 10.223 15.03 10.585 25.844Zm282.42 87.554c12.666 0 24.79-3.645 36.37-10.936l-8.143-27.482c-8.323 4.113-15.199 6.17-20.627 6.17-5.066 0-8.866-1.45-11.4-4.347-2.532-2.898-3.799-7.805-3.799-14.723V78.628h41.526V50.502h-41.526V10.765h-35.012v39.737h-20.627l.271 28.126h20.356v74.033c0 14.77 3.98 25.94 11.942 33.511 7.962 7.572 18.185 11.357 30.67 11.357Zm125.617.211c12.666 0 24.201-2.22 34.605-6.662 10.404-4.44 19.225-10.732 26.463-18.875l-19-20.263c-5.065 5.367-10.991 9.484-17.776 12.352-6.786 2.869-13.888 4.303-21.306 4.303-10.676 0-19.677-3.007-27.006-9.021-7.328-6.014-12.168-14.295-14.52-24.843h107.207c.181-2.406.272-6.014.272-10.826 0-24.426-5.836-43.394-17.506-56.903-11.671-13.508-29.087-20.263-52.247-20.263-14.294 0-27.05 3.192-38.269 9.577-11.218 6.384-19.948 15.313-26.19 26.786-6.243 11.473-9.365 24.611-9.365 39.415 0 14.804 3.076 27.897 9.228 39.277 6.152 11.38 14.883 20.217 26.192 26.509 11.308 6.291 24.381 9.437 39.218 9.437Zm36.64-87.765h-75.994c1.628-10.998 5.926-19.658 12.892-25.982 6.966-6.323 15.606-9.485 25.92-9.485 11.037 0 19.903 3.208 26.598 9.623 6.694 6.415 10.223 15.03 10.585 25.844ZM521.129 197.53c16.06 0 31.067-6.36 45.02-19.077v14.968h34.029V50.49h-34.029v16.582c-13.551-13.696-28.86-20.544-45.924-20.544-19.774 0-36.237 7.141-49.386 21.424-13.15 14.284-19.725 32.138-19.725 53.562 0 21.817 6.575 40.013 19.725 54.59 13.25 14.283 30.013 21.424 50.29 21.424Zm-.193-27.817c-12.284 0-22.468-4.526-30.552-13.58-7.874-8.952-11.81-20.549-11.81-34.79 0-13.327 4.041-24.517 12.125-33.57 8.19-8.953 18.373-13.429 30.552-13.429 12.913 0 23.412 4.426 31.496 13.276 8.084 9.054 12.126 20.549 12.126 34.485 0 13.937-4.042 25.432-12.126 34.486-8.084 8.748-18.688 13.122-31.811 13.122Z"
                fill-rule="nonzero"
        />
        <path d="M945.378 53.151V197.53H895.69V53.151h49.688Zm0-52.982v34.438H895.69V.17h49.688ZM1060.434 0C1114.318 0 1158 44.25 1158 98.834c0 27.429-11.03 52.248-28.842 70.154l27.29 29.012h-45.673l-9.033-9.601c-12.544 5.947-26.543 9.27-41.308 9.27-53.885 0-97.567-44.25-97.567-98.835C962.867 44.25 1006.55 0 1060.434 0Zm1.6 48.607c-28.268 0-51.183 23.213-51.183 51.847 0 28.635 22.915 51.848 51.182 51.848 1.615 0 3.212-.076 4.79-.224l-23.13-24.588h45.674l8.958 9.524c9.203-9.374 14.89-22.294 14.89-36.56 0-28.634-22.915-51.847-51.182-51.847Z"/>
    </g>
</svg>
