<svg viewBox="0 0 18 19" fill="none" xmlns="http://www.w3.org/2000/svg" data-qa="extracted-icon">
    <circle cx="9" cy="9.25" r="9" fill="url(#fill)"/>
    <g clip-path="url(#path)">
        <path
                d="M11.9606 10.2702C8.42566 10.2702 7.61301 9.40716 7.61301 5.65295C7.61301 5.58338 7.58699 5.51666 7.54067 5.46746C7.49435 5.41826 7.43152 5.39062 7.36601 5.39062C7.3005 5.39062 7.23767 5.41826 7.19135 5.46746C7.14503 5.51666 7.119 5.58338 7.119 5.65295C7.119 9.40716 6.30637 10.2702 2.77145 10.2702C2.73893 10.2701 2.7067 10.2767 2.67662 10.2899C2.64653 10.303 2.61918 10.3223 2.59614 10.3467C2.5731 10.371 2.55481 10.4 2.54234 10.4319C2.52986 10.4638 2.52344 10.498 2.52344 10.5325C2.52344 10.5671 2.52986 10.6013 2.54234 10.6332C2.55481 10.6651 2.5731 10.694 2.59614 10.7184C2.61918 10.7428 2.64653 10.7621 2.67662 10.7752C2.7067 10.7883 2.73893 10.795 2.77145 10.7949C6.30637 10.7949 7.119 11.6583 7.119 15.4125C7.119 15.4821 7.14503 15.5488 7.19135 15.598C7.23767 15.6472 7.3005 15.6749 7.36601 15.6749C7.43152 15.6749 7.49435 15.6472 7.54067 15.598C7.58699 15.5488 7.61301 15.4821 7.61301 15.4125C7.61301 11.6583 8.42564 10.7949 11.9606 10.7949C11.9931 10.795 12.0253 10.7883 12.0554 10.7752C12.0855 10.7621 12.1128 10.7428 12.1359 10.7184C12.1589 10.694 12.1772 10.6651 12.1897 10.6332C12.2022 10.6013 12.2086 10.5671 12.2086 10.5325C12.2086 10.498 12.2022 10.4638 12.1897 10.4319C12.1772 10.4 12.1589 10.371 12.1359 10.3467C12.1128 10.3223 12.0855 10.303 12.0554 10.2899C12.0253 10.2767 11.9931 10.2701 11.9606 10.2702Z"
                fill="white"
        />
        <path
                d="M12.1649 8.40527C12.0994 8.40526 12.0366 8.37761 11.9902 8.32842C11.9439 8.27923 11.9179 8.21251 11.9179 8.14294C11.9179 6.23401 11.5542 5.84778 9.75677 5.84778C9.69126 5.84778 9.62844 5.82014 9.58211 5.77094C9.53579 5.72175 9.50977 5.65502 9.50977 5.58545C9.50977 5.51587 9.53579 5.44915 9.58211 5.39995C9.62844 5.35076 9.69126 5.32312 9.75677 5.32312C11.5542 5.32312 11.9179 4.93689 11.9179 3.02795C11.9179 2.95838 11.9439 2.89166 11.9902 2.84246C12.0365 2.79326 12.0994 2.76562 12.1649 2.76562C12.2304 2.76562 12.2932 2.79326 12.3395 2.84246C12.3859 2.89166 12.4119 2.95838 12.4119 3.02795C12.4119 4.93689 12.7756 5.32312 14.573 5.32312C14.6385 5.32312 14.7013 5.35076 14.7476 5.39995C14.794 5.44915 14.82 5.51587 14.82 5.58545C14.82 5.65502 14.794 5.72175 14.7476 5.77094C14.7013 5.82014 14.6385 5.84778 14.573 5.84778C12.7756 5.84778 12.4119 6.23401 12.4119 8.14294C12.4119 8.21251 12.3858 8.27923 12.3395 8.32842C12.2932 8.37761 12.2304 8.40526 12.1649 8.40527ZM11.3989 5.58545C11.7444 5.74005 12.0193 6.03199 12.1649 6.39893C12.3104 6.03199 12.5853 5.74004 12.9309 5.58545C12.5853 5.43086 12.3104 5.13891 12.1649 4.77197C12.0193 5.13891 11.7444 5.43085 11.3989 5.58545Z"
                fill="white"
        />
    </g>
    <defs>
        <linearGradient id="fill" x1="1.44828" y1="1.25" x2="11.9159" y2="17.8673" gradientUnits="userSpaceOnUse">
            <stop stop-color="#FDD97C"/>
            <stop offset="0.47" stop-color="#B367E8"/>
            <stop offset="1" stop-color="#17ACB5"/>
        </linearGradient>
        <clipPath id="path">
            <rect width="13.1822" height="14" fill="white" transform="translate(2.08203 2.25)"/>
        </clipPath>
    </defs>
</svg>